<?xml version="1.0" standalone="no"?>
<!DOCTYPE svg PUBLIC "-//W3C//DTD SVG 20010904//EN"
 "http://www.w3.org/TR/2001/REC-SVG-20010904/DTD/svg10.dtd">
<svg version="1.0" xmlns="http://www.w3.org/2000/svg"
 width="300.000000pt" height="300.000000pt" viewBox="0 0 300.000000 300.000000"
 preserveAspectRatio="xMidYMid meet">
<metadata>
Created by potrace 1.11, written by Peter Selinger 2001-2013
</metadata>
<g transform="translate(0.000000,300.000000) scale(0.100000,-0.100000)"
fill="#000000" stroke="none">
<path d="M375 2988 c-208 -24 -316 -115 -352 -298 -6 -30 -12 -62 -13 -70 -6
-62 -4 -2186 2 -2238 15 -133 37 -190 101 -259 32 -35 105 -82 137 -88 3 0 37
-7 75 -15 58 -12 247 -15 1140 -14 589 0 1104 2 1146 5 230 18 353 135 377
359 9 83 9 2188 0 2255 -12 88 -19 117 -45 172 -46 97 -135 157 -283 189 -48
10 -2197 12 -2285 2z"/>
</g>
</svg>
